<?xml version="1.0" standalone="no"?>
<!DOCTYPE svg PUBLIC "-//W3C//DTD SVG 20010904//EN"
 "http://www.w3.org/TR/2001/REC-SVG-20010904/DTD/svg10.dtd">
<svg version="1.0" xmlns="http://www.w3.org/2000/svg"
 width="755.000000pt" height="754.000000pt" viewBox="0 0 755.000000 754.000000"
 preserveAspectRatio="xMidYMid meet">

<g transform="translate(0.000000,754.000000) scale(0.100000,-0.100000)"
fill="#000000" stroke="none">
<path d="M4 7506 c-3 -7 -3 -40 -1 -72 l3 -59 2 67 2 67 158 4 157 3 -158 2
c-125 2 -159 -1 -163 -12z"/>
<path d="M388 7513 c7 -3 16 -2 19 1 4 3 -2 6 -13 5 -11 0 -14 -3 -6 -6z"/>
<path d="M428 7513 c6 -2 18 -2 25 0 6 3 1 5 -13 5 -14 0 -19 -2 -12 -5z"/>
<path d="M488 7513 c7 -3 16 -2 19 1 4 3 -2 6 -13 5 -11 0 -14 -3 -6 -6z"/>
<path d="M818 7513 c111 -2 293 -2 405 0 111 1 20 2 -203 2 -223 0 -314 -1
-202 -2z"/>
<path d="M1488 7513 c7 -3 16 -2 19 1 4 3 -2 6 -13 5 -11 0 -14 -3 -6 -6z"/>
<path d="M1538 7513 c7 -3 16 -2 19 1 4 3 -2 6 -13 5 -11 0 -14 -3 -6 -6z"/>
<path d="M1588 7513 c6 -2 18 -2 25 0 6 3 1 5 -13 5 -14 0 -19 -2 -12 -5z"/>
<path d="M1923 7513 c120 -2 314 -2 430 0 117 1 19 2 -218 2 -236 0 -332 -1
-212 -2z"/>
<path d="M2618 7513 c7 -3 16 -2 19 1 4 3 -2 6 -13 5 -11 0 -14 -3 -6 -6z"/>
<path d="M2668 7513 c6 -2 18 -2 25 0 6 3 1 5 -13 5 -14 0 -19 -2 -12 -5z"/>
<path d="M2718 7513 c6 -2 18 -2 25 0 6 3 1 5 -13 5 -14 0 -19 -2 -12 -5z"/>
<path d="M3063 7513 c120 -2 314 -2 430 0 117 1 19 2 -218 2 -236 0 -332 -1
-212 -2z"/>
<path d="M3758 7513 c7 -3 16 -2 19 1 4 3 -2 6 -13 5 -11 0 -14 -3 -6 -6z"/>
<path d="M3798 7513 c6 -2 18 -2 25 0 6 3 1 5 -13 5 -14 0 -19 -2 -12 -5z"/>
<path d="M3858 7513 c6 -2 18 -2 25 0 6 3 1 5 -13 5 -14 0 -19 -2 -12 -5z"/>
<path d="M4198 7513 c117 -2 306 -2 420 0 114 1 18 2 -213 2 -231 0 -324 -1
-207 -2z"/>
<path d="M4888 7513 c7 -3 16 -2 19 1 4 3 -2 6 -13 5 -11 0 -14 -3 -6 -6z"/>
<path d="M4928 7513 c6 -2 18 -2 25 0 6 3 1 5 -13 5 -14 0 -19 -2 -12 -5z"/>
<path d="M4988 7513 c7 -3 16 -2 19 1 4 3 -2 6 -13 5 -11 0 -14 -3 -6 -6z"/>
<path d="M5318 7513 c111 -2 293 -2 405 0 111 1 20 2 -203 2 -223 0 -314 -1
-202 -2z"/>
<path d="M5988 7513 c7 -3 16 -2 19 1 4 3 -2 6 -13 5 -11 0 -14 -3 -6 -6z"/>
<path d="M6038 7513 c7 -3 16 -2 19 1 4 3 -2 6 -13 5 -11 0 -14 -3 -6 -6z"/>
<path d="M6088 7513 c6 -2 18 -2 25 0 6 3 1 5 -13 5 -14 0 -19 -2 -12 -5z"/>
<path d="M6423 7513 c120 -2 314 -2 430 0 117 1 19 2 -218 2 -236 0 -332 -1
-212 -2z"/>
<path d="M7118 7513 c7 -3 16 -2 19 1 4 3 -2 6 -13 5 -11 0 -14 -3 -6 -6z"/>
<path d="M7168 7513 c6 -2 18 -2 25 0 6 3 1 5 -13 5 -14 0 -19 -2 -12 -5z"/>
<path d="M7218 7513 c6 -2 18 -2 25 0 6 3 1 5 -13 5 -14 0 -19 -2 -12 -5z"/>
<path d="M7433 7513 l77 -4 0 -3749 0 -3749 -125 -4 -125 -3 127 1 128 0 0
3755 0 3755 -80 1 -80 0 78 -3z"/>
<path d="M3 7250 c0 -25 2 -35 4 -22 2 12 2 32 0 45 -2 12 -4 2 -4 -23z"/>
<path d="M4 6930 c0 -129 2 -182 3 -117 2 64 2 170 0 235 -1 64 -3 11 -3 -118z"/>
<path d="M3 6580 c0 -25 2 -35 4 -22 2 12 2 32 0 45 -2 12 -4 2 -4 -23z"/>
<path d="M4 6255 c0 -126 2 -177 3 -112 2 65 2 168 0 230 -1 62 -3 9 -3 -118z"/>
<path d="M3 5900 c0 -25 2 -35 4 -22 2 12 2 32 0 45 -2 12 -4 2 -4 -23z"/>
<path d="M3291 5897 c2 -1 13 -9 24 -17 19 -14 19 -14 6 3 -7 9 -18 17 -24 17
-6 0 -8 -1 -6 -3z"/>
<path d="M3750 5304 c0 -465 -3 -584 -12 -578 -10 6 -10 4 0 -7 9 -10 12 -209
12 -922 0 -603 3 -906 10 -902 6 4 10 220 10 616 0 485 3 609 13 603 10 -6 10
-4 0 7 -10 10 -13 202 -13 891 0 579 -3 878 -10 878 -7 0 -10 -202 -10 -586z"/>
<path d="M3079 5853 c-13 -16 -12 -17 4 -4 9 7 17 15 17 17 0 8 -8 3 -21 -13z"/>
<path d="M3220 5859 c0 -5 5 -7 10 -4 6 3 10 8 10 11 0 2 -4 4 -10 4 -5 0 -10
-5 -10 -11z"/>
<path d="M3332 5830 c0 -19 2 -27 5 -17 2 9 2 25 0 35 -3 9 -5 1 -5 -18z"/>
<path d="M3408 5823 c7 -3 16 -2 19 1 4 3 -2 6 -13 5 -11 0 -14 -3 -6 -6z"/>
<path d="M4 5580 c0 -129 2 -182 3 -117 2 64 2 170 0 235 -1 64 -3 11 -3 -118z"/>
<path d="M2947 5799 c7 -7 15 -10 18 -7 3 3 -2 9 -12 12 -14 6 -15 5 -6 -5z"/>
<path d="M3329 5763 c-13 -16 -12 -17 4 -4 9 7 17 15 17 17 0 8 -8 3 -21 -13z"/>
<path d="M2862 5750 c0 -14 2 -19 5 -12 2 6 2 18 0 25 -3 6 -5 1 -5 -13z"/>
<path d="M3510 5729 c0 -5 5 -7 10 -4 6 3 10 8 10 11 0 2 -4 4 -10 4 -5 0 -10
-5 -10 -11z"/>
<path d="M3305 5719 c-4 -6 -5 -12 -2 -15 2 -3 7 2 10 11 7 17 1 20 -8 4z"/>
<path d="M3390 5695 c-11 -13 -10 -14 4 -9 9 3 16 10 16 15 0 13 -6 11 -20 -6z"/>
<path d="M3510 5693 c-24 -10 -39 -30 -30 -39 5 -5 11 -34 13 -64 l3 -55 2 58
c1 33 9 68 18 82 9 14 15 25 13 24 -2 0 -11 -3 -19 -6z"/>
<path d="M3600 5693 c0 -4 5 -15 10 -23 8 -13 10 -13 10 2 0 9 -4 20 -10 23
-5 3 -10 3 -10 -2z"/>
<path d="M3152 5679 c-1 -9 -9 -22 -17 -29 -13 -11 -14 -10 -8 6 5 16 4 17 -8
7 -8 -6 -18 -13 -24 -15 -5 -1 -9 -6 -7 -10 1 -5 -2 -8 -6 -8 -16 0 -9 -30 11
-47 11 -10 17 -12 13 -5 -7 12 6 17 17 6 12 -12 -17 -30 -44 -26 -18 3 -35 -3
-49 -16 l-21 -19 26 2 c14 2 33 9 41 16 13 11 15 10 12 -2 -1 -8 2 -15 7 -16
6 0 9 4 7 11 -2 7 0 7 9 -1 9 -9 16 -10 26 -2 9 8 13 8 13 0 0 -6 8 -11 18
-11 14 0 19 8 19 28 0 15 2 34 4 42 2 8 -2 14 -9 12 -8 -1 -11 2 -7 8 3 5 2
10 -4 10 -5 0 -12 17 -14 38 -2 20 -4 30 -5 21z m-12 -76 c-11 -17 -11 -17 -6
0 3 10 6 24 7 30 0 9 2 9 5 0 3 -7 0 -20 -6 -30z"/>
<path d="M3552 5650 c0 -14 2 -19 5 -12 2 6 2 18 0 25 -3 6 -5 1 -5 -13z"/>
<path d="M3180 5645 c0 -8 2 -15 4 -15 2 0 6 7 10 15 3 8 1 15 -4 15 -6 0 -10
-7 -10 -15z"/>
<path d="M3422 5620 c-11 -23 -14 -36 -7 -30 10 9 15 7 18 -7 2 -10 3 -6 1 8
-2 14 4 36 12 48 8 11 11 21 6 21 -6 0 -19 -18 -30 -40z"/>
<path d="M3577 5653 c-4 -3 -7 -13 -7 -22 1 -13 3 -13 11 2 11 19 8 33 -4 20z"/>
<path d="M3207 5630 c-12 -12 -15 -20 -8 -25 6 -3 9 -11 6 -16 -4 -5 -4 -9 -1
-9 2 0 13 -3 23 -7 14 -5 16 -4 7 8 -6 8 -9 26 -8 42 2 15 2 27 1 26 -1 0 -10
-8 -20 -19z"/>
<path d="M3245 5639 c-4 -6 -5 -12 -2 -15 2 -3 7 2 10 11 7 17 1 20 -8 4z"/>
<path d="M3596 5627 c-8 -30 -7 -42 2 -33 4 4 7 11 7 14 0 4 4 12 8 19 4 6 3
14 -2 17 -5 3 -11 -4 -15 -17z"/>
<path d="M2924 5614 c11 -8 24 -14 30 -14 16 0 -12 24 -31 26 -16 2 -16 1 1
-12z"/>
<path d="M4161 5588 c-5 -18 -72 -247 -147 -508 -75 -261 -137 -476 -138 -477
-1 -1 -24 -12 -51 -25 l-50 -23 58 -3 c31 -2 83 -2 115 0 l57 3 -47 22 c-27
12 -48 26 -48 32 0 5 9 37 19 72 11 35 26 90 35 122 l17 57 154 0 154 0 40
-128 c23 -71 41 -133 41 -139 0 -6 -16 -14 -35 -17 -19 -4 -37 -11 -40 -16 -4
-6 53 -10 151 -10 156 0 180 6 102 25 l-40 10 -65 210 c-35 116 -74 246 -88
290 -107 360 -162 529 -172 532 -6 2 -16 -11 -22 -29z m48 -470 c39 -130 71
-239 71 -242 0 -4 -65 -6 -145 -6 -80 0 -145 2 -145 5 0 10 131 469 137 478 3
4 6 7 8 5 2 -2 35 -110 74 -240z"/>
<path d="M3018 5599 c13 -17 66 -33 56 -18 -3 5 -13 9 -23 9 -9 0 -23 6 -31
13 -12 10 -12 9 -2 -4z"/>
<path d="M3250 5589 c0 -5 5 -7 10 -4 6 3 10 8 10 11 0 2 -4 4 -10 4 -5 0 -10
-5 -10 -11z"/>
<path d="M3521 5574 c0 -11 3 -14 6 -6 3 7 2 16 -1 19 -3 4 -6 -2 -5 -13z"/>
<path d="M3200 5559 c0 -10 54 -19 63 -9 5 4 -7 10 -27 12 -20 2 -36 1 -36 -3z"/>
<path d="M3549 5570 c-1 -3 -3 -15 -4 -28 -2 -22 -1 -22 13 -8 13 12 14 19 4
28 -7 7 -13 10 -13 8z"/>
<path d="M3367 5542 c-11 -12 -13 -22 -7 -32 14 -21 12 -30 -5 -30 -8 0 -15
-8 -14 -17 0 -11 3 -13 6 -5 9 22 22 12 26 -20 l4 -33 1 33 c2 28 5 32 21 27
11 -3 23 0 27 6 5 9 2 10 -9 6 -37 -14 -64 52 -29 72 9 6 12 11 6 11 -6 0 -18
-8 -27 -18z"/>
<path d="M3517 5544 c-4 -4 -7 -14 -7 -23 0 -11 3 -12 11 -4 6 6 10 16 7 23
-2 6 -7 8 -11 4z"/>
<path d="M3400 5531 c0 -3 4 -12 9 -19 6 -11 9 -9 13 5 3 12 0 20 -8 20 -8 0
-14 -3 -14 -6z"/>
<path d="M3480 5521 c0 -6 4 -13 10 -16 6 -3 7 1 4 9 -7 18 -14 21 -14 7z"/>
<path d="M3060 5511 c0 -5 -8 -12 -17 -14 -14 -4 -12 -5 5 -6 13 -1 22 5 22
14 0 8 -2 15 -5 15 -3 0 -5 -4 -5 -9z"/>
<path d="M3136 5511 c-3 -5 1 -11 9 -15 8 -3 15 -1 15 4 0 13 -18 22 -24 11z"/>
<path d="M3289 5483 c-19 -20 -29 -33 -23 -30 7 4 26 -9 43 -28 37 -42 41 -34
7 15 l-23 35 20 17 c11 10 18 20 15 23 -2 3 -20 -12 -39 -32z"/>
<path d="M3509 5473 c-13 -16 -12 -17 4 -4 16 13 21 21 13 21 -2 0 -10 -8 -17
-17z"/>
<path d="M3207 5443 c-16 -3 -25 -9 -21 -15 4 -6 0 -16 -9 -23 -14 -10 -13
-13 6 -25 20 -12 21 -12 8 3 -9 11 -10 17 -2 17 6 0 11 7 11 16 0 12 7 15 30
12 18 -3 29 0 27 6 -4 12 -14 14 -50 9z"/>
<path d="M2929 5412 c7 -5 10 -15 7 -21 -4 -6 -3 -11 3 -11 5 0 13 5 16 10 3
6 11 10 16 10 6 0 7 -5 3 -12 -5 -7 -2 -9 7 -4 8 4 5 0 -5 -8 -12 -10 -15 -16
-7 -16 10 0 9 -7 -4 -26 -25 -39 -13 -38 18 1 24 30 26 37 15 55 -7 11 -20 20
-30 20 -9 0 -25 3 -35 6 -14 4 -15 4 -4 -4z"/>
<path d="M3251 5393 c7 -12 15 -20 18 -17 3 2 -3 12 -13 22 -17 16 -18 16 -5
-5z"/>
<path d="M3402 5330 c0 -14 2 -19 5 -12 2 6 2 18 0 25 -3 6 -5 1 -5 -13z"/>
<path d="M3337 5333 c-2 -5 -1 -19 4 -33 7 -23 7 -23 8 8 1 31 -3 40 -12 25z"/>
<path d="M3360 5289 c0 -5 5 -7 10 -4 6 3 10 8 10 11 0 2 -4 4 -10 4 -5 0 -10
-5 -10 -11z"/>
<path d="M3102 5260 c0 -14 2 -19 5 -12 2 6 2 18 0 25 -3 6 -5 1 -5 -13z"/>
<path d="M3 5220 c0 -25 2 -35 4 -22 2 12 2 32 0 45 -2 12 -4 2 -4 -23z"/>
<path d="M2788 5223 c7 -3 16 -2 19 1 4 3 -2 6 -13 5 -11 0 -14 -3 -6 -6z"/>
<path d="M2858 5223 c7 -3 16 -2 19 1 4 3 -2 6 -13 5 -11 0 -14 -3 -6 -6z"/>
<path d="M3310 5225 c0 -2 7 -8 15 -15 12 -10 15 -10 15 2 0 8 -7 15 -15 15
-8 0 -15 -1 -15 -2z"/>
<path d="M2728 5195 c6 -34 18 -40 16 -7 0 14 -5 27 -11 29 -6 2 -8 -7 -5 -22z"/>
<path d="M3150 5209 c0 -5 5 -7 10 -4 6 3 10 8 10 11 0 2 -4 4 -10 4 -5 0 -10
-5 -10 -11z"/>
<path d="M3038 5187 c-3 -19 -2 -25 4 -19 6 6 8 18 6 28 -3 14 -5 12 -10 -9z"/>
<path d="M3110 5159 c0 -5 5 -7 10 -4 6 3 10 8 10 11 0 2 -4 4 -10 4 -5 0 -10
-5 -10 -11z"/>
<path d="M3371 5162 c-1 -14 27 -72 35 -72 2 0 -2 12 -9 28 -8 15 -17 34 -20
42 -4 10 -6 11 -6 2z"/>
<path d="M4 4905 c0 -126 2 -177 3 -112 2 65 2 168 0 230 -1 62 -3 9 -3 -118z"/>
<path d="M2768 5108 c5 -5 16 -8 23 -6 8 3 3 7 -10 11 -17 4 -21 3 -13 -5z"/>
<path d="M2895 5110 c3 -5 8 -10 11 -10 2 0 4 5 4 10 0 6 -5 10 -11 10 -5 0
-7 -4 -4 -10z"/>
<path d="M3100 5098 c0 -13 -3 -34 -7 -47 -4 -14 -2 -22 3 -18 10 6 19 87 9
87 -3 0 -5 -10 -5 -22z"/>
<path d="M2635 5090 c-30 -8 -30 -8 8 -9 23 -1 36 3 32 9 -3 6 -7 9 -8 9 -1
-1 -15 -5 -32 -9z"/>
<path d="M3016 5082 c-2 -4 4 -9 15 -9 11 -1 17 2 14 8 -7 11 -22 12 -29 1z"/>
<path d="M2845 5050 c-4 -6 11 -10 37 -9 33 0 38 2 23 9 -28 12 -53 12 -60 0z"/>
<path d="M2956 5051 c9 -9 -70 -41 -89 -37 -12 3 -16 3 -9 0 10 -4 10 -9 2
-19 -7 -8 12 -2 42 12 29 14 63 25 76 25 12 0 22 6 22 12 0 6 -11 11 -24 11
-13 0 -23 -2 -20 -4z"/>
<path d="M3250 5041 c0 -6 17 -7 38 -4 51 8 53 13 4 13 -23 0 -42 -4 -42 -9z"/>
<path d="M2760 5031 l-45 -7 35 -4 c45 -6 82 -1 75 11 -4 5 -9 8 -13 7 -4 0
-27 -4 -52 -7z"/>
<path d="M3386 5031 c-3 -5 1 -11 9 -15 8 -3 15 -1 15 4 0 13 -18 22 -24 11z"/>
<path d="M3010 5015 c-11 -13 -11 -18 0 -28 10 -9 11 -9 6 1 -4 7 -2 19 4 27
7 8 10 15 7 15 -2 0 -10 -7 -17 -15z"/>
<path d="M3216 5015 c-6 -17 15 -30 36 -22 8 3 6 6 -6 6 -12 1 -16 6 -12 16 3
8 1 15 -3 15 -5 0 -12 -7 -15 -15z"/>
<path d="M2592 5004 c-14 -15 -7 -17 22 -5 15 6 16 9 5 13 -8 3 -20 -1 -27 -8z"/>
<path d="M2650 5016 c0 -10 28 -13 41 -5 10 6 7 9 -13 9 -16 0 -28 -2 -28 -4z"/>
<path d="M3136 4988 c4 -6 -1 -17 -11 -25 -11 -7 -14 -13 -8 -13 5 0 18 8 27
19 15 17 15 19 1 25 -10 4 -14 2 -9 -6z"/>
<path d="M3295 4989 c-28 -6 -28 -7 10 -7 22 -1 58 3 80 7 l40 9 -50 -1 c-27
0 -63 -4 -80 -8z"/>
<path d="M3641 4972 c-7 -17 -11 -37 -8 -44 3 -7 6 -4 6 8 1 11 6 25 12 31 6
6 9 17 7 24 -2 7 -10 -2 -17 -19z"/>
<path d="M2892 4960 c0 -19 2 -27 5 -17 2 9 2 25 0 35 -3 9 -5 1 -5 -18z"/>
<path d="M2800 4971 l-35 -7 32 -5 c22 -4 34 -1 37 8 3 7 4 12 3 12 -1 -1 -18
-5 -37 -8z"/>
<path d="M3278 4963 c6 -2 18 -2 25 0 6 3 1 5 -13 5 -14 0 -19 -2 -12 -5z"/>
<path d="M3348 4963 c12 -2 32 -2 45 0 12 2 2 4 -23 4 -25 0 -35 -2 -22 -4z"/>
<path d="M2728 4953 c7 -3 16 -2 19 1 4 3 -2 6 -13 5 -11 0 -14 -3 -6 -6z"/>
<path d="M3420 4956 c0 -2 7 -7 16 -10 8 -3 12 -2 9 4 -6 10 -25 14 -25 6z"/>
<path d="M2490 4910 c0 -5 7 -10 16 -10 8 0 12 5 9 10 -3 6 -10 10 -16 10 -5
0 -9 -4 -9 -10z"/>
<path d="M2548 4913 c7 -3 16 -2 19 1 4 3 -2 6 -13 5 -11 0 -14 -3 -6 -6z"/>
<path d="M3564 4892 c24 -27 26 -27 25 1 0 12 -3 16 -6 9 -4 -10 -8 -10 -21 0
-12 9 -11 6 2 -10z"/>
<path d="M2690 4896 c0 -2 7 -7 16 -10 8 -3 12 -2 9 4 -6 10 -25 14 -25 6z"/>
<path d="M2890 4888 c0 -4 4 -8 9 -8 6 0 12 4 15 8 3 5 -1 9 -9 9 -8 0 -15 -4
-15 -9z"/>
<path d="M2820 4854 c0 -8 5 -12 10 -9 6 4 8 11 5 16 -9 14 -15 11 -15 -7z"/>
<path d="M2700 4841 c0 -12 5 -21 10 -21 6 0 10 6 10 14 0 8 -4 18 -10 21 -5
3 -10 -3 -10 -14z"/>
<path d="M3631 4852 c-1 -8 -6 -10 -13 -6 -7 4 -4 -2 7 -13 25 -25 28 -23 16
8 -5 13 -10 18 -10 11z"/>
<path d="M2748 4833 c6 -2 18 -2 25 0 6 3 1 5 -13 5 -14 0 -19 -2 -12 -5z"/>
<path d="M3685 4770 c10 -11 20 -20 22 -20 2 0 -2 9 -9 20 -7 11 -17 20 -22
20 -5 0 -1 -9 9 -20z"/>
<path d="M3680 4726 c0 -2 8 -10 18 -17 15 -13 16 -12 3 4 -13 16 -21 21 -21
13z"/>
<path d="M3 4550 c0 -25 2 -35 4 -22 2 12 2 32 0 45 -2 12 -4 2 -4 -23z"/>
<path d="M4 4220 c0 -135 2 -190 3 -122 2 67 2 177 0 245 -1 67 -3 12 -3 -123z"/>
<path d="M2944 4351 c3 -5 22 -12 41 -15 l35 -7 0 -494 0 -494 -35 -7 c-80
-15 -38 -24 107 -23 155 0 156 1 80 30 -22 9 -22 10 -20 176 l3 168 85 5 c162
11 260 67 319 183 31 60 35 76 35 145 -1 181 -116 304 -312 332 -85 12 -345
13 -338 1z m383 -39 c89 -46 123 -127 123 -292 0 -135 -17 -197 -70 -250 -44
-44 -125 -73 -187 -68 l-38 3 -3 319 -2 319 67 -5 c41 -3 85 -13 110 -26z"/>
<path d="M3857 4029 c7 -7 15 -10 18 -7 3 3 -2 9 -12 12 -14 6 -15 5 -6 -5z"/>
<path d="M4805 3969 c6 -33 15 -36 15 -6 0 15 -4 27 -9 27 -6 0 -8 -10 -6 -21z"/>
<path d="M3900 3955 c0 -14 2 -25 4 -25 2 0 6 11 8 25 3 14 1 25 -3 25 -5 0
-9 -11 -9 -25z"/>
<path d="M4728 3973 c7 -3 16 -2 19 1 4 3 -2 6 -13 5 -11 0 -14 -3 -6 -6z"/>
<path d="M3950 3932 c0 -4 10 -13 23 -21 22 -14 22 -14 3 8 -20 22 -26 25 -26
13z"/>
<path d="M4805 3920 c3 -5 8 -10 11 -10 2 0 4 5 4 10 0 6 -5 10 -11 10 -5 0
-7 -4 -4 -10z"/>
<path d="M3900 3886 c0 -19 3 -37 8 -40 4 -2 6 13 4 35 -5 48 -12 51 -12 5z"/>
<path d="M4858 3903 c7 -3 16 -2 19 1 4 3 -2 6 -13 5 -11 0 -14 -3 -6 -6z"/>
<path d="M5011 3894 c0 -11 3 -14 6 -6 3 7 2 16 -1 19 -3 4 -6 -2 -5 -13z"/>
<path d="M3 3855 c0 -27 2 -38 4 -22 2 15 2 37 0 50 -2 12 -4 0 -4 -28z"/>
<path d="M4391 3846 c-18 -14 -40 -34 -48 -46 -13 -19 -40 -19 -28 0 7 11 -13
24 -40 27 -15 1 -14 -1 6 -10 14 -7 24 -18 22 -24 -3 -7 1 -13 9 -13 10 0 9
-3 -2 -10 -12 -7 -10 -9 7 -7 12 0 21 4 20 7 -2 8 27 50 35 50 4 0 19 11 34
25 34 32 27 32 -15 1z"/>
<path d="M4775 3860 c-19 -8 -19 -9 3 -9 12 -1 22 4 22 9 0 6 -1 10 -2 9 -2 0
-12 -4 -23 -9z"/>
<path d="M4218 3853 c7 -3 16 -2 19 1 4 3 -2 6 -13 5 -11 0 -14 -3 -6 -6z"/>
<path d="M4561 3844 c0 -11 3 -14 6 -6 3 7 2 16 -1 19 -3 4 -6 -2 -5 -13z"/>
<path d="M4691 3846 c-8 -10 -3 -11 19 -8 35 5 37 8 10 15 -10 3 -24 -1 -29
-7z"/>
<path d="M3941 3834 c0 -11 3 -14 6 -6 3 7 2 16 -1 19 -3 4 -6 -2 -5 -13z"/>
<path d="M3881 3824 c0 -11 3 -14 6 -6 3 7 2 16 -1 19 -3 4 -6 -2 -5 -13z"/>
<path d="M4151 3821 c-10 -6 -2 -9 22 -8 21 0 37 5 37 9 0 11 -41 10 -59 -1z"/>
<path d="M4655 3819 c-4 -6 -13 -8 -21 -5 -8 3 -14 2 -14 -3 0 -4 -11 -13 -24
-19 -19 -8 -26 -8 -30 1 -2 7 -5 4 -5 -5 -1 -11 -6 -15 -16 -12 -8 4 -15 1
-15 -5 0 -6 7 -11 15 -11 8 0 15 -5 15 -11 0 -5 5 -7 10 -4 6 4 8 10 5 15 -3
4 15 18 40 30 39 19 66 40 51 40 -3 0 -8 -5 -11 -11z"/>
<path d="M4855 3819 c-4 -6 -17 -14 -29 -19 -19 -8 -18 -9 8 -9 16 -1 26 2 23
6 -4 3 -2 12 4 20 6 7 9 13 6 13 -3 0 -9 -5 -12 -11z"/>
<path d="M4912 3815 c-20 -11 -21 -13 -6 -19 9 -4 19 -4 22 -1 3 3 2 5 -3 5
-4 0 -2 7 5 15 14 17 13 17 -18 0z"/>
<path d="M4086 3807 c3 -10 9 -15 12 -12 3 3 0 11 -7 18 -10 9 -11 8 -5 -6z"/>
<path d="M4122 3800 c7 -10 14 -18 15 -16 6 6 -9 36 -18 36 -5 0 -4 -9 3 -20z"/>
<path d="M4668 3793 c7 -3 16 -2 19 1 4 3 -2 6 -13 5 -11 0 -14 -3 -6 -6z"/>
<path d="M4711 3788 c-26 -9 -26 -14 -1 -21 11 -3 18 -1 15 3 -3 5 12 10 32
12 l38 3 -31 6 c-18 3 -41 2 -53 -3z"/>
<path d="M4960 3791 c-20 -6 -22 -8 -8 -13 9 -4 22 -1 28 8 7 8 11 14 9 13 -2
-1 -15 -4 -29 -8z"/>
<path d="M4426 3775 c-3 -8 -1 -15 4 -15 6 0 10 7 10 15 0 8 -2 15 -4 15 -2 0
-6 -7 -10 -15z"/>
<path d="M4268 3773 c7 -3 16 -2 19 1 4 3 -2 6 -13 5 -11 0 -14 -3 -6 -6z"/>
<path d="M4 3540 c0 -129 2 -182 3 -117 2 64 2 170 0 235 -1 64 -3 11 -3 -118z"/>
<path d="M4625 3760 c28 -12 45 -12 45 0 0 6 -15 10 -32 9 -28 0 -30 -2 -13
-9z"/>
<path d="M4422 3720 c0 -19 2 -27 5 -17 2 9 2 25 0 35 -3 9 -5 1 -5 -18z"/>
<path d="M4485 3730 c3 -5 12 -7 20 -3 21 7 19 13 -6 13 -11 0 -18 -4 -14 -10z"/>
<path d="M4839 3727 c5 -5 24 -7 42 -5 33 3 33 4 -8 8 -23 3 -39 2 -34 -3z"/>
<path d="M4725 3711 c-18 -7 -17 -8 7 -13 19 -4 25 -1 21 9 -3 7 -6 13 -7 12
0 0 -10 -4 -21 -8z"/>
<path d="M4332 3690 c0 -14 2 -19 5 -12 2 6 2 18 0 25 -3 6 -5 1 -5 -13z"/>
<path d="M4616 3697 c3 -10 9 -15 12 -12 3 3 0 11 -7 18 -10 9 -11 8 -5 -6z"/>
<path d="M4140 3682 c0 -5 10 -17 22 -28 l21 -19 -18 28 c-18 28 -25 33 -25
19z"/>
<path d="M4640 3685 c0 -2 10 -10 23 -16 20 -11 21 -11 8 4 -13 16 -31 23 -31
12z"/>
<path d="M4411 3654 c0 -11 3 -14 6 -6 3 7 2 16 -1 19 -3 4 -6 -2 -5 -13z"/>
<path d="M4622 3650 c0 -14 2 -19 5 -12 2 6 2 18 0 25 -3 6 -5 1 -5 -13z"/>
<path d="M4697 3649 c7 -7 15 -10 18 -7 3 3 -2 9 -12 12 -14 6 -15 5 -6 -5z"/>
<path d="M4478 3625 c2 -14 6 -25 8 -25 2 0 4 11 4 25 0 14 -4 25 -9 25 -4 0
-6 -11 -3 -25z"/>
<path d="M4180 3624 c0 -13 18 -39 24 -34 2 3 -2 14 -10 24 -8 11 -14 16 -14
10z"/>
<path d="M4771 3604 c13 -16 29 -19 29 -5 0 5 -9 11 -21 14 -16 4 -18 3 -8 -9z"/>
<path d="M4702 3584 c-14 -15 -7 -17 22 -5 15 6 16 9 5 13 -8 3 -20 -1 -27 -8z"/>
<path d="M4418 3560 c-3 -19 0 -30 7 -30 7 0 10 11 7 30 -2 17 -5 30 -7 30 -2
0 -5 -13 -7 -30z"/>
<path d="M4658 3583 c7 -3 16 -2 19 1 4 3 -2 6 -13 5 -11 0 -14 -3 -6 -6z"/>
<path d="M4180 3498 c0 -9 7 -22 17 -29 15 -13 15 -12 3 11 -17 34 -20 36 -20
18z"/>
<path d="M4546 3476 c-22 -30 -24 -37 -13 -58 15 -29 67 -34 59 -6 -3 14 -8
15 -22 8 -13 -7 -21 -7 -25 0 -3 5 -2 10 3 10 6 0 13 7 16 16 6 15 4 15 -11 3
-14 -11 -13 -6 5 24 27 46 22 47 -12 3z"/>
<path d="M4265 3430 c16 -70 16 -69 -7 -65 -13 3 -31 15 -40 27 -13 17 -18 19
-18 7 0 -8 9 -25 21 -38 l21 -22 -21 -18 c-12 -10 -21 -22 -21 -27 0 -4 15 6
33 23 39 37 68 53 98 53 12 0 19 3 15 7 -4 4 -17 8 -29 8 -15 0 -28 11 -40 35
-13 26 -16 28 -12 10z"/>
<path d="M4205 3432 c4 -4 12 -7 18 -7 7 0 12 -5 12 -12 0 -6 3 -14 7 -18 3
-4 5 0 4 9 -1 8 -5 19 -9 23 -4 4 -15 8 -23 9 -9 1 -13 -1 -9 -4z"/>
<path d="M4325 3419 c4 -5 16 -9 27 -9 26 0 19 9 -11 15 -12 2 -19 0 -16 -6z"/>
<path d="M4180 3349 c0 -7 -12 -9 -35 -5 -30 6 -34 5 -28 -11 4 -11 8 -13 11
-4 3 9 9 8 23 -5 11 -10 19 -12 19 -6 0 7 7 12 15 12 8 0 15 7 15 15 0 8 -4
15 -10 15 -5 0 -10 -5 -10 -11z"/>
<path d="M4020 3339 c0 -5 5 -7 10 -4 6 3 10 8 10 11 0 2 -4 4 -10 4 -5 0 -10
-5 -10 -11z"/>
<path d="M4370 3308 c0 -4 5 -10 10 -13 6 -3 10 -12 9 -18 0 -9 -2 -9 -6 1 -2
6 -9 12 -14 12 -6 0 -7 -4 -4 -10 4 -6 -1 -7 -11 -3 -11 4 -15 3 -11 -4 5 -8
-6 -10 -33 -7 -21 2 -42 -1 -45 -7 -4 -6 5 -8 24 -4 39 7 39 0 0 -20 -17 -9
-28 -19 -25 -22 3 -3 12 -1 19 6 8 6 21 9 30 5 10 -3 17 1 20 13 4 17 5 17 6
0 0 -10 -9 -22 -21 -27 -13 -5 -17 -9 -10 -9 7 -1 10 -5 7 -11 -10 -16 7 -12
27 7 16 14 18 14 18 1 0 -9 -7 -21 -15 -28 -8 -7 -15 -20 -14 -29 0 -12 2 -11
8 4 5 11 19 29 31 40 l23 20 -12 -22 c-16 -30 -13 -42 4 -19 14 19 15 18 16
-15 1 -21 3 -26 6 -13 2 12 13 24 24 27 35 9 33 35 -5 84 -24 31 -33 50 -26
57 6 8 3 12 -11 12 -10 0 -19 -4 -19 -8z m56 -80 c5 -8 2 -9 -9 -5 -18 7 -24
-8 -7 -18 6 -3 10 -11 10 -18 0 -6 -7 -1 -16 11 -15 21 -12 42 6 42 5 0 12 -5
16 -12z"/>
<path d="M4453 3305 c0 -8 2 -15 4 -15 3 0 11 7 19 15 14 13 13 15 -4 15 -10
0 -19 -7 -19 -15z"/>
<path d="M4040 3294 c0 -8 5 -12 10 -9 6 4 8 11 5 16 -9 14 -15 11 -15 -7z"/>
<path d="M4714 3290 c0 -13 4 -16 10 -10 7 7 7 13 0 20 -6 6 -10 3 -10 -10z"/>
<path d="M4002 3283 c5 -7 14 -10 19 -7 16 10 9 23 -10 21 -15 -1 -17 -4 -9
-14z"/>
<path d="M4110 3292 c0 -5 9 -17 20 -27 19 -17 19 -17 7 9 -12 25 -27 35 -27
18z"/>
<path d="M4422 3288 c-8 -8 -3 -18 18 -39 16 -16 35 -29 42 -29 8 0 20 -6 28
-12 12 -11 12 -10 1 5 -7 9 -21 17 -31 17 -10 0 -21 7 -24 16 -5 12 -2 15 9
10 9 -3 26 3 38 15 19 18 20 19 3 13 -14 -5 -17 -4 -12 4 4 7 2 12 -3 12 -6 0
-11 -4 -11 -10 0 -5 -7 -10 -15 -10 -8 0 -15 -4 -15 -10 0 -5 -7 -7 -16 -3
-12 4 -13 7 -3 14 8 4 11 10 8 13 -3 3 -10 1 -17 -6z"/>
<path d="M3977 3273 c-11 -11 -8 -20 8 -20 8 0 15 6 15 14 0 14 -12 17 -23 6z"/>
<path d="M4110 3215 c-7 -9 -10 -18 -7 -21 3 -3 10 4 17 15 13 25 8 27 -10 6z"/>
<path d="M3 3180 c0 -25 2 -35 4 -22 2 12 2 32 0 45 -2 12 -4 2 -4 -23z"/>
<path d="M3934 3206 c-3 -8 -4 -23 -2 -32 3 -20 28 -32 28 -14 0 6 -5 8 -11 4
-8 -4 -9 3 -4 25 7 31 -1 43 -11 17z"/>
<path d="M4572 3204 c10 -10 20 -15 24 -12 3 4 -5 12 -18 18 -22 12 -22 12 -6
-6z"/>
<path d="M3988 3193 c7 -3 16 -2 19 1 4 3 -2 6 -13 5 -11 0 -14 -3 -6 -6z"/>
<path d="M4036 3186 c3 -9 -4 -32 -17 -53 -17 -28 -18 -34 -6 -24 9 7 17 10
17 5 0 -5 5 -1 11 9 6 9 16 14 22 11 8 -5 8 -3 0 7 -7 7 -13 21 -13 30 0 10
-4 21 -10 24 -6 3 -7 -1 -4 -9z"/>
<path d="M3970 3172 c6 -13 14 -21 18 -18 3 4 -2 14 -12 24 -18 16 -18 16 -6
-6z"/>
<path d="M4080 3160 c-9 -6 -10 -10 -3 -10 6 0 15 5 18 10 8 12 4 12 -15 0z"/>
<path d="M4179 3153 c-13 -16 -12 -17 4 -4 16 13 21 21 13 21 -2 0 -10 -8 -17
-17z"/>
<path d="M4420 3141 c0 -6 4 -13 10 -16 6 -3 7 1 4 9 -7 18 -14 21 -14 7z"/>
<path d="M3925 3130 c-3 -5 -1 -10 4 -10 6 0 11 5 11 10 0 6 -2 10 -4 10 -3 0
-8 -4 -11 -10z"/>
<path d="M4116 3104 c-5 -14 -4 -15 9 -4 17 14 19 20 6 20 -5 0 -12 -7 -15
-16z"/>
<path d="M4 2860 c0 -129 2 -182 3 -117 2 64 2 170 0 235 -1 64 -3 11 -3 -118z"/>
<path d="M4441 3054 c0 -11 3 -14 6 -6 3 7 2 16 -1 19 -3 4 -6 -2 -5 -13z"/>
<path d="M4190 3045 c-11 -13 -10 -14 4 -9 9 3 16 10 16 15 0 13 -6 11 -20 -6z"/>
<path d="M4560 3016 c0 -2 7 -7 16 -10 8 -3 12 -2 9 4 -6 10 -25 14 -25 6z"/>
<path d="M4630 3010 c-9 -6 -10 -10 -3 -10 6 0 15 5 18 10 8 12 4 12 -15 0z"/>
<path d="M4561 2984 c0 -11 3 -14 6 -6 3 7 2 16 -1 19 -3 4 -6 -2 -5 -13z"/>
<path d="M4245 2920 c-16 -7 -17 -9 -3 -9 9 -1 20 4 23 9 7 11 7 11 -20 0z"/>
<path d="M3 2500 c0 -25 2 -35 4 -22 2 12 2 32 0 45 -2 12 -4 2 -4 -23z"/>
<path d="M2252 2465 c36 -20 52 -73 52 -170 0 -87 -16 -149 -42 -165 -15 -8
-15 -9 -1 -10 41 0 89 91 89 171 0 98 -38 167 -100 183 -25 7 -25 7 2 -9z"/>
<path d="M1848 2462 c10 -7 12 -47 10 -175 l-3 -167 30 0 30 0 -3 170 -3 170
25 0 c31 0 66 -43 66 -82 0 -18 -10 -39 -26 -54 -22 -23 -23 -27 -9 -37 9 -7
20 -42 28 -87 12 -72 13 -75 41 -78 24 -3 28 -1 19 10 -6 7 -14 39 -17 70 -6
45 -13 62 -33 78 -14 11 -24 22 -22 23 2 2 17 11 32 21 24 15 28 22 25 58 -4
60 -38 81 -131 86 -44 2 -67 0 -59 -6z"/>
<path d="M2187 2459 c-32 -19 -57 -88 -57 -162 0 -73 16 -123 49 -156 26 -26
51 -29 28 -3 -48 53 -48 260 1 315 17 19 7 22 -21 6z"/>
<path d="M2410 2433 c1 -36 2 -37 15 -19 8 11 15 26 15 33 0 7 11 13 25 13
l26 0 -3 -165 -3 -165 25 0 25 0 -3 165 -3 165 26 0 c14 0 25 -6 25 -13 0 -7
7 -22 15 -33 13 -18 14 -17 15 19 l0 37 -100 0 -100 0 0 -37z"/>
<path d="M2698 2464 c17 -8 17 -315 0 -332 -9 -9 -4 -12 23 -12 l34 0 -3 170
-3 170 26 0 c62 0 90 -93 41 -139 -23 -22 -24 -23 -6 -41 10 -10 21 -40 25
-67 11 -88 14 -93 41 -93 21 0 23 3 14 19 -5 11 -10 38 -10 61 0 32 -6 48 -29
70 l-29 29 25 16 c36 24 48 58 34 92 -17 42 -47 56 -126 60 -38 1 -64 0 -57
-3z"/>
<path d="M3060 2431 c-7 -28 -7 -46 0 -58 6 -10 19 -46 29 -80 l19 -63 -45 0
-45 0 5 38 c4 26 0 20 -13 -23 -20 -62 -26 -102 -8 -52 9 24 14 27 58 27 47 0
49 -1 60 -35 7 -20 9 -42 6 -50 -4 -11 3 -15 29 -15 31 0 34 2 25 18 -5 9 -30
86 -55 171 -25 85 -47 156 -49 159 -3 2 -10 -14 -16 -37z"/>
<path d="M3268 2457 c10 -11 12 -56 10 -176 l-3 -161 25 0 25 0 -3 170 c-3
159 -2 170 15 170 56 0 93 -66 93 -165 0 -75 -17 -125 -51 -149 -17 -11 -19
-16 -8 -16 48 0 108 92 109 165 0 49 -35 122 -72 149 -36 26 -160 38 -140 13z"/>
<path d="M3558 2461 c10 -6 12 -46 10 -174 l-3 -167 25 0 25 0 -3 170 -2 170
45 0 c42 0 46 -2 59 -35 19 -45 26 -44 26 5 l0 40 -97 0 c-55 0 -92 -4 -85 -9z"/>
<path d="M4056 2459 c-13 -39 -36 -128 -35 -136 0 -4 6 8 13 27 l13 35 22 -71
c11 -39 21 -74 21 -78 0 -3 -20 -6 -44 -6 l-45 0 10 32 c5 18 9 37 8 43 -1 14
-15 -23 -23 -60 l-7 -30 54 3 53 4 13 -41 c6 -23 9 -46 6 -51 -4 -6 9 -10 31
-10 28 0 34 3 26 13 -5 6 -31 84 -57 172 -26 88 -49 162 -51 164 -2 2 -6 -2
-8 -10z"/>
<path d="M4275 2437 c-41 -41 -59 -104 -51 -175 10 -82 50 -143 96 -142 12 1
11 3 -3 11 -30 18 -47 73 -47 155 0 104 16 153 54 170 28 12 29 13 8 14 -14 0
-38 -14 -57 -33z"/>
<path d="M4391 2456 c-8 -10 -8 -20 4 -42 l15 -29 0 43 c0 46 -2 49 -19 28z"/>
<path d="M4565 2415 c-9 -31 -14 -59 -11 -62 3 -4 6 2 6 12 0 30 13 9 32 -53
25 -80 25 -82 -26 -82 -40 0 -44 2 -40 23 4 20 4 20 -4 2 -5 -11 -12 -36 -16
-55 -5 -33 -5 -33 5 -7 10 24 16 27 59 27 47 0 49 -1 60 -35 7 -20 9 -42 6
-50 -4 -11 3 -15 29 -15 31 0 34 2 25 18 -6 9 -31 87 -56 172 -25 85 -47 156
-49 159 -2 2 -11 -22 -20 -54z"/>
<path d="M4768 2462 c10 -7 12 -47 10 -175 l-3 -167 40 0 c32 1 37 3 23 11
-16 9 -18 28 -18 165 0 169 4 179 56 155 79 -36 84 -265 7 -310 -15 -9 -15
-10 -2 -11 23 0 67 37 85 72 22 42 20 150 -3 190 -31 53 -66 72 -141 76 -41 2
-62 0 -54 -6z"/>
<path d="M5068 2461 c10 -6 12 -46 10 -174 l-3 -167 25 0 25 0 -3 170 -2 170
44 0 c40 0 45 -3 55 -30 13 -40 21 -38 21 5 l0 35 -92 0 c-53 0 -87 -4 -80 -9z"/>
<path d="M5333 2459 c15 -9 17 -28 17 -162 0 -106 -4 -157 -12 -165 -9 -9 -6
-12 17 -12 23 0 26 3 17 12 -8 8 -12 54 -12 143 0 83 4 125 9 116 6 -8 31 -73
57 -143 26 -70 50 -128 53 -128 8 0 94 260 88 267 -3 3 -20 -39 -37 -93 -17
-55 -33 -100 -34 -102 -2 -1 -27 61 -56 138 l-53 140 -36 0 c-29 -1 -33 -3
-18 -11z"/>
<path d="M5583 2453 c-3 -9 -7 -87 -7 -175 l-1 -158 30 0 30 0 -3 167 c-2 128
0 168 10 174 8 6 1 9 -20 9 -21 0 -35 -6 -39 -17z"/>
<path d="M5723 2453 c8 -10 31 -61 51 -113 37 -99 47 -185 24 -208 -9 -9 -4
-12 23 -12 l34 0 0 83 c0 45 3 93 7 107 6 18 4 17 -6 -5 l-14 -30 -10 25 c-50
133 -55 152 -41 161 9 6 -2 9 -35 9 -46 0 -48 -1 -33 -17z"/>
<path d="M5892 2458 c15 -11 15 -15 -3 -61 -11 -27 -18 -51 -16 -54 2 -2 12
18 22 44 10 27 27 56 39 65 21 17 20 18 -19 17 -33 0 -37 -2 -23 -11z"/>
<path d="M1585 2290 l0 -170 30 0 30 0 -3 170 -3 170 -27 0 -27 0 0 -170z"/>
<path d="M1676 2450 c35 -14 54 -50 54 -103 0 -38 -5 -53 -25 -72 -32 -33 -6
-33 33 0 58 48 46 142 -22 170 -20 8 -41 15 -48 14 -7 0 -3 -4 8 -9z"/>
<path d="M4 2185 c0 -126 2 -177 3 -112 2 65 2 168 0 230 -1 62 -3 9 -3 -118z"/>
<path d="M3036 2344 c-4 -14 -5 -28 -3 -31 3 -2 8 8 11 23 4 14 5 28 3 31 -3
2 -8 -8 -11 -23z"/>
<path d="M3669 2329 c-14 -21 -15 -28 -3 -44 19 -25 26 -15 22 31 l-3 38 -16
-25z"/>
<path d="M5173 2327 c-8 -17 -7 -28 3 -42 13 -17 14 -15 14 23 0 48 -3 51 -17
19z"/>
<path d="M4536 2314 c-4 -14 -5 -28 -3 -31 3 -2 8 8 11 23 4 14 5 28 3 31 -3
2 -8 -8 -11 -23z"/>
<path d="M4416 2195 c-9 -26 -7 -32 5 -12 6 10 9 21 6 23 -2 3 -7 -2 -11 -11z"/>
<path d="M3718 2165 c-14 -35 -14 -40 -1 -43 21 -5 25 2 21 44 l-3 39 -17 -40z"/>
<path d="M3975 2170 c-4 -16 -14 -34 -23 -40 -13 -7 -10 -9 18 -10 23 0 30 3
21 9 -9 6 -11 18 -6 40 4 17 4 31 2 31 -3 0 -8 -13 -12 -30z"/>
<path d="M5235 2190 c-4 -6 -10 -24 -15 -40 -7 -26 -6 -30 11 -30 16 0 19 7
19 40 0 41 -4 48 -15 30z"/>
<path d="M2972 2140 c-11 -18 -10 -20 15 -20 16 0 23 4 17 8 -6 4 -13 13 -15
20 -3 8 -8 5 -17 -8z"/>
<path d="M4389 2143 c-13 -16 -12 -17 4 -4 9 7 17 15 17 17 0 8 -8 3 -21 -13z"/>
<path d="M4478 2138 c-17 -17 -17 -18 15 -18 17 0 27 4 21 8 -6 4 -13 12 -15
17 -2 6 -11 3 -21 -7z"/>
<path d="M3 1830 c0 -25 2 -35 4 -22 2 12 2 32 0 45 -2 12 -4 2 -4 -23z"/>
<path d="M2831 1793 c0 -6 -11 -14 -23 -16 -23 -4 -23 -4 1 -6 19 -1 22 -5 18
-22 -4 -15 -3 -19 4 -12 6 6 9 23 6 39 -2 16 -5 24 -6 17z"/>
<path d="M3632 1770 c0 -19 2 -27 5 -17 2 9 2 25 0 35 -3 9 -5 1 -5 -18z"/>
<path d="M4170 1791 c0 -5 -8 -12 -17 -14 -16 -4 -16 -5 -1 -6 9 0 19 -11 21
-23 3 -14 5 -9 6 15 0 20 -1 37 -4 37 -3 0 -5 -4 -5 -9z"/>
<path d="M4862 1765 c0 -23 3 -30 5 -17 2 12 12 22 21 23 14 0 14 2 2 6 -8 3
-18 11 -22 17 -4 6 -7 -7 -6 -29z"/>
<path d="M5051 1775 c-1 -24 3 -31 18 -31 11 0 17 5 14 13 -3 7 -9 11 -13 8
-5 -3 -11 5 -13 17 -3 18 -5 16 -6 -7z"/>
<path d="M3760 1780 c0 -5 5 -10 11 -10 5 0 7 5 4 10 -3 6 -8 10 -11 10 -2 0
-4 -4 -4 -10z"/>
<path d="M4400 1780 c0 -5 5 -10 11 -10 5 0 7 5 4 10 -3 6 -8 10 -11 10 -2 0
-4 -4 -4 -10z"/>
<path d="M4645 1780 c-3 -5 -1 -10 4 -10 6 0 11 5 11 10 0 6 -2 10 -4 10 -3 0
-8 -4 -11 -10z"/>
<path d="M2498 1773 c7 -3 16 -2 19 1 4 3 -2 6 -13 5 -11 0 -14 -3 -6 -6z"/>
<path d="M2550 1776 c0 -2 9 -6 20 -9 11 -3 18 -1 14 4 -5 9 -34 13 -34 5z"/>
<path d="M2678 1773 c7 -3 16 -2 19 1 4 3 -2 6 -13 5 -11 0 -14 -3 -6 -6z"/>
<path d="M2738 1773 c7 -3 16 -2 19 1 4 3 -2 6 -13 5 -11 0 -14 -3 -6 -6z"/>
<path d="M2853 1765 c-7 -21 -3 -23 27 -14 l25 7 -25 2 c-23 1 -23 2 -5 10 18
8 18 9 2 9 -10 1 -20 -6 -24 -14z"/>
<path d="M3113 1774 c9 -3 15 -9 13 -13 -3 -4 0 -13 5 -21 8 -12 9 -9 7 10 -2
16 -10 25 -23 27 -16 1 -16 1 -2 -3z"/>
<path d="M3168 1773 c6 -2 18 -2 25 0 6 3 1 5 -13 5 -14 0 -19 -2 -12 -5z"/>
<path d="M3227 1773 c-14 -14 -6 -23 21 -22 27 2 27 2 2 7 -23 4 -24 5 -5 13
14 5 16 8 4 8 -9 1 -19 -2 -22 -6z"/>
<path d="M3321 1770 c10 -7 49 -2 49 5 0 2 -14 3 -31 3 -17 -1 -25 -4 -18 -8z"/>
<path d="M3496 1771 c-4 -5 3 -7 14 -4 23 6 26 13 6 13 -8 0 -17 -4 -20 -9z"/>
<path d="M3560 1772 c0 -6 9 -8 19 -5 13 3 21 -1 25 -14 4 -15 5 -15 3 2 -2
20 -47 36 -47 17z"/>
<path d="M3810 1776 c0 -2 9 -6 20 -9 11 -3 18 -1 14 4 -5 9 -34 13 -34 5z"/>
<path d="M4036 1773 c7 -4 14 -17 17 -28 5 -16 5 -15 4 4 -1 14 -9 26 -17 28
-10 3 -11 2 -4 -4z"/>
<path d="M4082 1760 c0 -14 2 -19 5 -12 2 6 2 18 0 25 -3 6 -5 1 -5 -13z"/>
<path d="M4260 1760 c0 -11 2 -20 4 -20 2 0 6 9 9 20 3 11 1 20 -4 20 -5 0 -9
-9 -9 -20z"/>
<path d="M4333 1765 c-3 -9 -3 -19 1 -22 3 -4 6 1 6 10 0 8 8 18 18 20 16 4
16 5 -1 6 -10 0 -20 -6 -24 -14z"/>
<path d="M4693 1765 c-7 -21 -2 -24 22 -14 l20 8 -20 1 -20 1 20 9 c18 8 18 9
2 9 -10 1 -20 -6 -24 -14z"/>
<path d="M4768 1773 c6 -2 18 -2 25 0 6 3 1 5 -13 5 -14 0 -19 -2 -12 -5z"/>
<path d="M4948 1773 c7 -3 16 -2 19 1 4 3 -2 6 -13 5 -11 0 -14 -3 -6 -6z"/>
<path d="M4993 1765 c-3 -9 -3 -19 1 -22 3 -4 6 1 6 10 0 8 6 18 13 20 9 4 9
6 -1 6 -7 1 -15 -6 -19 -14z"/>
<path d="M2975 1761 c-18 -7 -17 -8 7 -13 19 -4 25 -1 21 9 -3 7 -6 13 -7 12
0 0 -10 -4 -21 -8z"/>
<path d="M3095 1749 c-4 -6 -5 -12 -2 -15 2 -3 7 2 10 11 7 17 1 20 -8 4z"/>
<path d="M3150 1751 c0 -6 4 -13 10 -16 6 -3 7 1 4 9 -7 18 -14 21 -14 7z"/>
<path d="M4600 1756 c0 -2 7 -7 16 -10 8 -3 12 -2 9 4 -6 10 -25 14 -25 6z"/>
<path d="M4 1510 c0 -129 2 -182 3 -117 2 64 2 170 0 235 -1 64 -3 11 -3 -118z"/>
<path d="M3 1150 c0 -25 2 -35 4 -22 2 12 2 32 0 45 -2 12 -4 2 -4 -23z"/>
<path d="M4 825 c0 -132 2 -185 3 -117 2 68 2 176 0 240 -1 64 -3 9 -3 -123z"/>
<path d="M3 460 c0 -25 2 -35 4 -22 2 12 2 32 0 45 -2 12 -4 2 -4 -23z"/>
<path d="M5 188 l0 -183 75 -1 75 0 -72 3 -73 4 -3 179 -3 180 1 -182z"/>
<path d="M348 3 c6 -2 18 -2 25 0 6 3 1 5 -13 5 -14 0 -19 -2 -12 -5z"/>
<path d="M408 3 c6 -2 18 -2 25 0 6 3 1 5 -13 5 -14 0 -19 -2 -12 -5z"/>
<path d="M713 3 c104 -2 270 -2 370 0 100 1 16 2 -188 2 -203 0 -285 -1 -182
-2z"/>
<path d="M1448 3 c6 -2 18 -2 25 0 6 3 1 5 -13 5 -14 0 -19 -2 -12 -5z"/>
<path d="M1508 3 c6 -2 18 -2 25 0 6 3 1 5 -13 5 -14 0 -19 -2 -12 -5z"/>
<path d="M1817 3 c105 -2 281 -2 390 0 109 1 23 2 -192 2 -214 0 -304 -1 -198
-2z"/>
<path d="M2588 3 c6 -2 18 -2 25 0 6 3 1 5 -13 5 -14 0 -19 -2 -12 -5z"/>
<path d="M2638 3 c6 -2 18 -2 25 0 6 3 1 5 -13 5 -14 0 -19 -2 -12 -5z"/>
<path d="M2947 3 c105 -2 281 -2 390 0 109 1 23 2 -192 2 -214 0 -304 -1 -198
-2z"/>
<path d="M3718 3 c6 -2 18 -2 25 0 6 3 1 5 -13 5 -14 0 -19 -2 -12 -5z"/>
<path d="M3778 3 c7 -3 16 -2 19 1 4 3 -2 6 -13 5 -11 0 -14 -3 -6 -6z"/>
<path d="M4088 3 c105 -2 279 -2 385 0 105 1 19 2 -193 2 -212 0 -298 -1 -192
-2z"/>
<path d="M4848 3 c6 -2 18 -2 25 0 6 3 1 5 -13 5 -14 0 -19 -2 -12 -5z"/>
<path d="M4908 3 c6 -2 18 -2 25 0 6 3 1 5 -13 5 -14 0 -19 -2 -12 -5z"/>
<path d="M5213 3 c104 -2 270 -2 370 0 100 1 16 2 -188 2 -203 0 -285 -1 -182
-2z"/>
<path d="M5948 3 c6 -2 18 -2 25 0 6 3 1 5 -13 5 -14 0 -19 -2 -12 -5z"/>
<path d="M6008 3 c6 -2 18 -2 25 0 6 3 1 5 -13 5 -14 0 -19 -2 -12 -5z"/>
<path d="M6317 3 c105 -2 281 -2 390 0 109 1 23 2 -192 2 -214 0 -304 -1 -198
-2z"/>
<path d="M7088 3 c6 -2 18 -2 25 0 6 3 1 5 -13 5 -14 0 -19 -2 -12 -5z"/>
<path d="M7138 3 c6 -2 18 -2 25 0 6 3 1 5 -13 5 -14 0 -19 -2 -12 -5z"/>
</g>
</svg>
